<mxfile host="app.diagrams.net" modified="2024-06-21T21:11:10.112Z" agent="Mozilla/5.0 (Windows NT 10.0; Win64; x64) AppleWebKit/537.36 (KHTML, like Gecko) Chrome/123.0.0.0 Safari/537.36 OPR/109.0.0.0" etag="FvDigT-l0reImi9TD3PZ" version="24.6.1" type="device">
  <diagram name="Página-1" id="zeSVdccrwy3L7n12ofGi">
    <mxGraphModel dx="2103" dy="1001" grid="1" gridSize="10" guides="1" tooltips="1" connect="1" arrows="1" fold="1" page="1" pageScale="1" pageWidth="827" pageHeight="1169" math="0" shadow="0">
      <root>
        <mxCell id="0" />
        <mxCell id="1" parent="0" />
        <mxCell id="sDP2cia6nYdZddYxNMse-30" style="edgeStyle=elbowEdgeStyle;rounded=0;orthogonalLoop=1;jettySize=auto;html=1;exitX=1;exitY=0.5;exitDx=0;exitDy=0;elbow=vertical;entryX=0.875;entryY=0.017;entryDx=0;entryDy=0;entryPerimeter=0;" parent="1" source="sDP2cia6nYdZddYxNMse-1" target="sDP2cia6nYdZddYxNMse-7" edge="1">
          <mxGeometry relative="1" as="geometry">
            <mxPoint x="560" y="280" as="targetPoint" />
            <Array as="points">
              <mxPoint x="500" y="280" />
            </Array>
          </mxGeometry>
        </mxCell>
        <mxCell id="sDP2cia6nYdZddYxNMse-33" style="rounded=0;orthogonalLoop=1;jettySize=auto;html=1;exitX=0.5;exitY=1;exitDx=0;exitDy=0;entryX=0.5;entryY=0;entryDx=0;entryDy=0;" parent="1" source="sDP2cia6nYdZddYxNMse-1" target="sDP2cia6nYdZddYxNMse-9" edge="1">
          <mxGeometry relative="1" as="geometry" />
        </mxCell>
        <mxCell id="sDP2cia6nYdZddYxNMse-1" value="Condición del Bucle While&lt;div&gt;&amp;nbsp;(i &amp;lt;= doc_size1)&lt;div&gt;&lt;br&gt;&lt;/div&gt;&lt;/div&gt;" style="whiteSpace=wrap;html=1;" parent="1" vertex="1">
          <mxGeometry x="345" y="250" width="120" height="60" as="geometry" />
        </mxCell>
        <mxCell id="sDP2cia6nYdZddYxNMse-5" style="edgeStyle=none;rounded=0;orthogonalLoop=1;jettySize=auto;html=1;exitX=0.5;exitY=1;exitDx=0;exitDy=0;" parent="1" source="sDP2cia6nYdZddYxNMse-2" target="sDP2cia6nYdZddYxNMse-1" edge="1">
          <mxGeometry relative="1" as="geometry" />
        </mxCell>
        <mxCell id="sDP2cia6nYdZddYxNMse-2" value="Declarar e Inicializar Variables&amp;nbsp;&lt;div&gt;(i=0, doc_size1=doc.size())&lt;/div&gt;" style="whiteSpace=wrap;html=1;" parent="1" vertex="1">
          <mxGeometry x="330" y="160" width="150" height="60" as="geometry" />
        </mxCell>
        <mxCell id="sDP2cia6nYdZddYxNMse-4" style="edgeStyle=orthogonalEdgeStyle;rounded=0;orthogonalLoop=1;jettySize=auto;html=1;exitX=0.5;exitY=1;exitDx=0;exitDy=0;" parent="1" source="sDP2cia6nYdZddYxNMse-3" target="sDP2cia6nYdZddYxNMse-2" edge="1">
          <mxGeometry relative="1" as="geometry" />
        </mxCell>
        <mxCell id="sDP2cia6nYdZddYxNMse-3" value="INICIO" style="ellipse;whiteSpace=wrap;html=1;" parent="1" vertex="1">
          <mxGeometry x="330" y="30" width="150" height="80" as="geometry" />
        </mxCell>
        <mxCell id="sDP2cia6nYdZddYxNMse-13" style="edgeStyle=none;rounded=0;orthogonalLoop=1;jettySize=auto;html=1;exitX=0.75;exitY=1;exitDx=0;exitDy=0;entryX=1;entryY=0.5;entryDx=0;entryDy=0;" parent="1" source="sDP2cia6nYdZddYxNMse-7" target="u53RnNtN1u5gZYPtoaes-1" edge="1">
          <mxGeometry relative="1" as="geometry">
            <mxPoint x="640" y="410" as="targetPoint" />
          </mxGeometry>
        </mxCell>
        <mxCell id="sDP2cia6nYdZddYxNMse-7" value="Imprimir Tamaño del Documento (doc.size())" style="whiteSpace=wrap;html=1;" parent="1" vertex="1">
          <mxGeometry x="550" y="313" width="120" height="60" as="geometry" />
        </mxCell>
        <mxCell id="sDP2cia6nYdZddYxNMse-34" style="rounded=0;orthogonalLoop=1;jettySize=auto;html=1;exitX=0.5;exitY=1;exitDx=0;exitDy=0;entryX=0.5;entryY=0;entryDx=0;entryDy=0;" parent="1" source="sDP2cia6nYdZddYxNMse-9" target="u53RnNtN1u5gZYPtoaes-4" edge="1">
          <mxGeometry relative="1" as="geometry">
            <mxPoint x="405" y="420" as="targetPoint" />
          </mxGeometry>
        </mxCell>
        <mxCell id="sDP2cia6nYdZddYxNMse-9" value="Leer Carácter Actual (doc_char = doc[i])" style="whiteSpace=wrap;html=1;" parent="1" vertex="1">
          <mxGeometry x="345" y="340" width="120" height="60" as="geometry" />
        </mxCell>
        <mxCell id="sDP2cia6nYdZddYxNMse-16" style="edgeStyle=none;rounded=0;orthogonalLoop=1;jettySize=auto;html=1;exitX=0.5;exitY=1;exitDx=0;exitDy=0;entryX=0.25;entryY=0;entryDx=0;entryDy=0;" parent="1" source="u53RnNtN1u5gZYPtoaes-4" target="sDP2cia6nYdZddYxNMse-17" edge="1">
          <mxGeometry relative="1" as="geometry">
            <mxPoint x="293" y="640" as="targetPoint" />
            <mxPoint x="372.5" y="480" as="sourcePoint" />
          </mxGeometry>
        </mxCell>
        <mxCell id="sDP2cia6nYdZddYxNMse-21" value="Sí (true)" style="edgeLabel;html=1;align=center;verticalAlign=middle;resizable=0;points=[];" parent="sDP2cia6nYdZddYxNMse-16" vertex="1" connectable="0">
          <mxGeometry x="0.0419" y="4" relative="1" as="geometry">
            <mxPoint x="25" y="-2" as="offset" />
          </mxGeometry>
        </mxCell>
        <mxCell id="sDP2cia6nYdZddYxNMse-31" style="edgeStyle=elbowEdgeStyle;rounded=0;orthogonalLoop=1;jettySize=auto;html=1;exitX=0;exitY=0.5;exitDx=0;exitDy=0;elbow=vertical;entryX=0.5;entryY=0;entryDx=0;entryDy=0;" parent="1" source="u53RnNtN1u5gZYPtoaes-4" target="sDP2cia6nYdZddYxNMse-19" edge="1">
          <mxGeometry relative="1" as="geometry">
            <mxPoint x="230" y="450" as="targetPoint" />
            <mxPoint x="340" y="450" as="sourcePoint" />
          </mxGeometry>
        </mxCell>
        <mxCell id="sDP2cia6nYdZddYxNMse-35" style="rounded=0;orthogonalLoop=1;jettySize=auto;html=1;exitX=0.25;exitY=1;exitDx=0;exitDy=0;entryX=0.25;entryY=0;entryDx=0;entryDy=0;" parent="1" source="sDP2cia6nYdZddYxNMse-17" target="sDP2cia6nYdZddYxNMse-26" edge="1">
          <mxGeometry relative="1" as="geometry" />
        </mxCell>
        <mxCell id="sDP2cia6nYdZddYxNMse-17" value="Imprimir Índice (i)" style="whiteSpace=wrap;html=1;" parent="1" vertex="1">
          <mxGeometry x="340" y="530" width="140" height="70" as="geometry" />
        </mxCell>
        <mxCell id="sDP2cia6nYdZddYxNMse-24" style="edgeStyle=none;rounded=0;orthogonalLoop=1;jettySize=auto;html=1;exitX=0.5;exitY=1;exitDx=0;exitDy=0;entryX=0.25;entryY=0;entryDx=0;entryDy=0;" parent="1" source="sDP2cia6nYdZddYxNMse-19" target="sDP2cia6nYdZddYxNMse-23" edge="1">
          <mxGeometry relative="1" as="geometry" />
        </mxCell>
        <mxCell id="sDP2cia6nYdZddYxNMse-19" value="Incrementar i (i = i + 1)" style="whiteSpace=wrap;html=1;" parent="1" vertex="1">
          <mxGeometry x="95" y="470" width="135" height="70" as="geometry" />
        </mxCell>
        <mxCell id="sDP2cia6nYdZddYxNMse-23" value="Repetir Bucle" style="whiteSpace=wrap;html=1;" parent="1" vertex="1">
          <mxGeometry x="130" y="585" width="120" height="60" as="geometry" />
        </mxCell>
        <mxCell id="sDP2cia6nYdZddYxNMse-36" style="edgeStyle=none;rounded=0;orthogonalLoop=1;jettySize=auto;html=1;exitX=0.25;exitY=1;exitDx=0;exitDy=0;entryX=0.25;entryY=0;entryDx=0;entryDy=0;" parent="1" source="sDP2cia6nYdZddYxNMse-26" target="sDP2cia6nYdZddYxNMse-27" edge="1">
          <mxGeometry relative="1" as="geometry" />
        </mxCell>
        <mxCell id="sDP2cia6nYdZddYxNMse-26" value="Incrementar i (i = i + 1)" style="whiteSpace=wrap;html=1;" parent="1" vertex="1">
          <mxGeometry x="340" y="630" width="120" height="60" as="geometry" />
        </mxCell>
        <mxCell id="u53RnNtN1u5gZYPtoaes-3" style="edgeStyle=none;rounded=0;orthogonalLoop=1;jettySize=auto;html=1;exitX=0.5;exitY=1;exitDx=0;exitDy=0;" edge="1" parent="1" source="sDP2cia6nYdZddYxNMse-27" target="u53RnNtN1u5gZYPtoaes-1">
          <mxGeometry relative="1" as="geometry" />
        </mxCell>
        <mxCell id="sDP2cia6nYdZddYxNMse-27" value="Repetir Bucle&amp;nbsp;&lt;div&gt;(Condición del Bucle While)&lt;/div&gt;" style="whiteSpace=wrap;html=1;" parent="1" vertex="1">
          <mxGeometry x="330" y="720" width="150" height="60" as="geometry" />
        </mxCell>
        <mxCell id="sDP2cia6nYdZddYxNMse-32" value="No(false)" style="text;html=1;align=center;verticalAlign=middle;resizable=0;points=[];autosize=1;strokeColor=none;fillColor=none;" parent="1" vertex="1">
          <mxGeometry x="225" y="428" width="70" height="30" as="geometry" />
        </mxCell>
        <mxCell id="u53RnNtN1u5gZYPtoaes-1" value="Fin" style="ellipse;whiteSpace=wrap;html=1;" vertex="1" parent="1">
          <mxGeometry x="370" y="860" width="80" height="80" as="geometry" />
        </mxCell>
        <mxCell id="u53RnNtN1u5gZYPtoaes-2" style="rounded=0;orthogonalLoop=1;jettySize=auto;html=1;exitX=0.25;exitY=1;exitDx=0;exitDy=0;entryX=-0.037;entryY=0.413;entryDx=0;entryDy=0;entryPerimeter=0;" edge="1" parent="1" source="sDP2cia6nYdZddYxNMse-23" target="u53RnNtN1u5gZYPtoaes-1">
          <mxGeometry relative="1" as="geometry" />
        </mxCell>
        <mxCell id="u53RnNtN1u5gZYPtoaes-4" value="Condición del Espacio&amp;nbsp;&lt;div&gt;(doc_char == &#39; &#39;)&lt;/div&gt;" style="rhombus;whiteSpace=wrap;html=1;" vertex="1" parent="1">
          <mxGeometry x="320" y="428" width="155" height="80" as="geometry" />
        </mxCell>
      </root>
    </mxGraphModel>
  </diagram>
</mxfile>
